<svg width="399" height="47" viewBox="0 0 399 47" fill="none" xmlns="http://www.w3.org/2000/svg">
<path d="M82.26 10.76C82.18 11.78 82.12 12.76 82.08 13.7C82.06 14.64 82.05 15.36 82.05 15.86C82.05 16.3 82.06 16.72 82.08 17.12C82.1 17.52 82.12 17.86 82.14 18.14H81.45C81.13 16.46 80.72 15.13 80.22 14.15C79.74 13.17 79.16 12.48 78.48 12.08C77.8 11.66 77 11.45 76.08 11.45H75.39V28.58C75.39 29.38 75.47 29.98 75.63 30.38C75.81 30.78 76.13 31.05 76.59 31.19C77.05 31.31 77.72 31.38 78.6 31.4V32C77.98 31.98 77.15 31.96 76.11 31.94C75.09 31.92 74.02 31.91 72.9 31.91C71.8 31.91 70.76 31.92 69.78 31.94C68.8 31.96 68.01 31.98 67.41 32V31.4C68.31 31.38 68.99 31.31 69.45 31.19C69.91 31.05 70.22 30.78 70.38 30.38C70.54 29.98 70.62 29.38 70.62 28.58V11.45H69.96C69.04 11.45 68.24 11.66 67.56 12.08C66.88 12.48 66.3 13.17 65.82 14.15C65.34 15.11 64.92 16.44 64.56 18.14H63.87C63.91 17.86 63.93 17.52 63.93 17.12C63.95 16.72 63.96 16.3 63.96 15.86C63.96 15.36 63.94 14.64 63.9 13.7C63.88 12.76 63.83 11.78 63.75 10.76C64.67 10.78 65.67 10.8 66.75 10.82C67.85 10.84 68.95 10.85 70.05 10.85C71.15 10.85 72.14 10.85 73.02 10.85C73.92 10.85 74.91 10.85 75.99 10.85C77.09 10.85 78.19 10.84 79.29 10.82C80.39 10.8 81.38 10.78 82.26 10.76ZM99.7791 32V31.4C100.419 31.36 100.899 31.28 101.219 31.16C101.539 31.04 101.749 30.8 101.849 30.44C101.969 30.08 102.029 29.54 102.029 28.82V13.94C102.029 13.2 101.969 12.66 101.849 12.32C101.749 11.96 101.529 11.72 101.189 11.6C100.869 11.46 100.399 11.38 99.7791 11.36V10.76C100.319 10.78 101.019 10.8 101.879 10.82C102.759 10.84 103.629 10.85 104.489 10.85C105.409 10.85 106.269 10.84 107.069 10.82C107.889 10.8 108.549 10.78 109.049 10.76V11.36C108.409 11.38 107.919 11.46 107.579 11.6C107.259 11.72 107.049 11.96 106.949 12.32C106.849 12.66 106.799 13.2 106.799 13.94V28.82C106.799 29.54 106.849 30.08 106.949 30.44C107.069 30.8 107.289 31.04 107.609 31.16C107.929 31.28 108.409 31.36 109.049 31.4V32C108.549 31.96 107.889 31.94 107.069 31.94C106.269 31.92 105.409 31.91 104.489 31.91C103.629 31.91 102.759 31.92 101.879 31.94C101.019 31.94 100.319 31.96 99.7791 32ZM87.0591 32V31.4C87.6991 31.36 88.1791 31.28 88.4991 31.16C88.8191 31.04 89.0291 30.8 89.1291 30.44C89.2491 30.08 89.3091 29.54 89.3091 28.82V13.94C89.3091 13.2 89.2491 12.66 89.1291 12.32C89.0291 11.96 88.8091 11.72 88.4691 11.6C88.1491 11.46 87.6791 11.38 87.0591 11.36V10.76C87.5791 10.78 88.2491 10.8 89.0691 10.82C89.9091 10.84 90.8191 10.85 91.7991 10.85C92.6391 10.85 93.4691 10.84 94.2891 10.82C95.1091 10.8 95.7891 10.78 96.3291 10.76V11.36C95.6891 11.38 95.1991 11.46 94.8591 11.6C94.5391 11.72 94.3291 11.96 94.2291 12.32C94.1291 12.66 94.0791 13.2 94.0791 13.94V28.82C94.0791 29.54 94.1291 30.08 94.2291 30.44C94.3491 30.8 94.5691 31.04 94.8891 31.16C95.2091 31.28 95.6891 31.36 96.3291 31.4V32C95.7891 31.96 95.1091 31.94 94.2891 31.94C93.4691 31.92 92.6391 31.91 91.7991 31.91C90.8191 31.91 89.9091 31.92 89.0691 31.94C88.2491 31.94 87.5791 31.96 87.0591 32ZM92.1291 21.62V21.02H103.979V21.62H92.1291ZM130.103 10.76C130.023 11.64 129.963 12.49 129.923 13.31C129.903 14.13 129.893 14.76 129.893 15.2C129.893 15.6 129.903 15.98 129.923 16.34C129.943 16.7 129.963 17 129.983 17.24H129.293C129.093 15.78 128.783 14.63 128.363 13.79C127.943 12.93 127.393 12.33 126.713 11.99C126.053 11.63 125.273 11.45 124.373 11.45H123.143C122.563 11.45 122.123 11.5 121.823 11.6C121.523 11.7 121.323 11.9 121.223 12.2C121.123 12.5 121.073 12.96 121.073 13.58V29.18C121.073 29.8 121.123 30.26 121.223 30.56C121.323 30.86 121.523 31.06 121.823 31.16C122.123 31.26 122.563 31.31 123.143 31.31H124.613C125.513 31.31 126.303 31.12 126.983 30.74C127.683 30.34 128.273 29.67 128.753 28.73C129.253 27.79 129.633 26.52 129.893 24.92H130.583C130.523 25.56 130.493 26.4 130.493 27.44C130.493 27.9 130.503 28.55 130.523 29.39C130.543 30.23 130.603 31.1 130.703 32C129.683 31.96 128.533 31.94 127.253 31.94C125.973 31.92 124.833 31.91 123.833 31.91C123.333 31.91 122.693 31.91 121.913 31.91C121.133 31.91 120.293 31.92 119.393 31.94C118.493 31.94 117.583 31.95 116.663 31.97C115.743 31.97 114.873 31.98 114.053 32V31.4C114.693 31.36 115.173 31.28 115.493 31.16C115.813 31.04 116.023 30.8 116.123 30.44C116.243 30.08 116.303 29.54 116.303 28.82V13.94C116.303 13.2 116.243 12.66 116.123 12.32C116.023 11.96 115.803 11.72 115.463 11.6C115.143 11.46 114.673 11.38 114.053 11.36V10.76C114.873 10.78 115.743 10.8 116.663 10.82C117.583 10.82 118.493 10.83 119.393 10.85C120.293 10.85 121.133 10.85 121.913 10.85C122.693 10.85 123.333 10.85 123.833 10.85C124.753 10.85 125.793 10.85 126.953 10.85C128.133 10.83 129.183 10.8 130.103 10.76ZM125.423 21.02C125.423 21.02 125.423 21.12 125.423 21.32C125.423 21.52 125.423 21.62 125.423 21.62H120.173C120.173 21.62 120.173 21.52 120.173 21.32C120.173 21.12 120.173 21.02 120.173 21.02H125.423ZM126.293 17.06C126.213 18.2 126.173 19.07 126.173 19.67C126.193 20.27 126.203 20.82 126.203 21.32C126.203 21.82 126.213 22.37 126.233 22.97C126.253 23.57 126.303 24.44 126.383 25.58H125.693C125.593 24.88 125.403 24.23 125.123 23.63C124.863 23.03 124.483 22.55 123.983 22.19C123.483 21.81 122.833 21.62 122.033 21.62V21.02C122.633 21.02 123.143 20.9 123.563 20.66C123.983 20.4 124.323 20.07 124.583 19.67C124.863 19.25 125.083 18.81 125.243 18.35C125.403 17.89 125.523 17.46 125.603 17.06H126.293ZM154.917 10.7L162.207 29.48C162.487 30.2 162.797 30.7 163.137 30.98C163.497 31.24 163.817 31.38 164.097 31.4V32C163.497 31.96 162.787 31.94 161.967 31.94C161.167 31.92 160.357 31.91 159.537 31.91C158.617 31.91 157.747 31.92 156.927 31.94C156.107 31.94 155.457 31.96 154.977 32V31.4C155.997 31.36 156.637 31.19 156.897 30.89C157.177 30.57 157.117 29.9 156.717 28.88L151.617 14.93L152.157 14.15L147.597 26.03C147.157 27.13 146.887 28.03 146.787 28.73C146.707 29.43 146.757 29.97 146.937 30.35C147.137 30.73 147.447 31 147.867 31.16C148.307 31.3 148.827 31.38 149.427 31.4V32C148.767 31.96 148.137 31.94 147.537 31.94C146.937 31.92 146.327 31.91 145.707 31.91C145.267 31.91 144.847 31.92 144.447 31.94C144.067 31.94 143.727 31.96 143.427 32V31.4C143.847 31.32 144.277 31.05 144.717 30.59C145.157 30.13 145.587 29.35 146.007 28.25L152.847 10.7C153.167 10.72 153.507 10.73 153.867 10.73C154.247 10.73 154.597 10.72 154.917 10.7ZM157.017 23.36V23.96H148.077L148.377 23.36H157.017ZM187.091 10.76V11.36C186.451 11.44 185.971 11.61 185.651 11.87C185.331 12.11 185.111 12.5 184.991 13.04C184.891 13.58 184.841 14.34 184.841 15.32V32.06C184.601 32.04 184.351 32.03 184.091 32.03C183.851 32.03 183.591 32.04 183.311 32.06L170.291 15.56V27.08C170.291 28.18 170.351 29.03 170.471 29.63C170.591 30.21 170.851 30.63 171.251 30.89C171.671 31.13 172.321 31.3 173.201 31.4V32C172.821 31.96 172.321 31.94 171.701 31.94C171.081 31.92 170.501 31.91 169.961 31.91C169.501 31.91 169.031 31.92 168.551 31.94C168.071 31.94 167.671 31.96 167.351 32V31.4C167.991 31.3 168.471 31.13 168.791 30.89C169.111 30.65 169.321 30.26 169.421 29.72C169.541 29.16 169.601 28.4 169.601 27.44V13.94C169.601 13.2 169.541 12.66 169.421 12.32C169.321 11.96 169.101 11.72 168.761 11.6C168.441 11.46 167.971 11.38 167.351 11.36V10.76C167.671 10.78 168.071 10.8 168.551 10.82C169.031 10.84 169.501 10.85 169.961 10.85C170.441 10.85 170.901 10.84 171.341 10.82C171.781 10.8 172.181 10.78 172.541 10.76L184.151 25.07V15.68C184.151 14.58 184.091 13.74 183.971 13.16C183.851 12.56 183.581 12.13 183.161 11.87C182.761 11.61 182.121 11.44 181.241 11.36V10.76C181.621 10.78 182.121 10.8 182.741 10.82C183.361 10.84 183.941 10.85 184.481 10.85C184.961 10.85 185.431 10.84 185.891 10.82C186.371 10.8 186.771 10.78 187.091 10.76ZM201.61 10.7L208.9 29.48C209.18 30.2 209.49 30.7 209.83 30.98C210.19 31.24 210.51 31.38 210.79 31.4V32C210.19 31.96 209.48 31.94 208.66 31.94C207.86 31.92 207.05 31.91 206.23 31.91C205.31 31.91 204.44 31.92 203.62 31.94C202.8 31.94 202.15 31.96 201.67 32V31.4C202.69 31.36 203.33 31.19 203.59 30.89C203.87 30.57 203.81 29.9 203.41 28.88L198.31 14.93L198.85 14.15L194.29 26.03C193.85 27.13 193.58 28.03 193.48 28.73C193.4 29.43 193.45 29.97 193.63 30.35C193.83 30.73 194.14 31 194.56 31.16C195 31.3 195.52 31.38 196.12 31.4V32C195.46 31.96 194.83 31.94 194.23 31.94C193.63 31.92 193.02 31.91 192.4 31.91C191.96 31.91 191.54 31.92 191.14 31.94C190.76 31.94 190.42 31.96 190.12 32V31.4C190.54 31.32 190.97 31.05 191.41 30.59C191.85 30.13 192.28 29.35 192.7 28.25L199.54 10.7C199.86 10.72 200.2 10.73 200.56 10.73C200.94 10.73 201.29 10.72 201.61 10.7ZM203.71 23.36V23.96H194.77L195.07 23.36H203.71ZM223.464 10.76V11.36C222.784 11.38 222.264 11.46 221.904 11.6C221.564 11.72 221.334 11.96 221.214 12.32C221.094 12.66 221.034 13.2 221.034 13.94V29.18C221.034 29.8 221.074 30.26 221.154 30.56C221.254 30.86 221.434 31.06 221.694 31.16C221.974 31.26 222.384 31.31 222.924 31.31H224.394C225.074 31.31 225.714 31.15 226.314 30.83C226.914 30.51 227.454 30.06 227.934 29.48C228.414 28.88 228.814 28.17 229.134 27.35C229.454 26.53 229.694 25.62 229.854 24.62H230.544C230.484 25.3 230.454 26.18 230.454 27.26C230.454 27.72 230.464 28.39 230.484 29.27C230.504 30.15 230.564 31.06 230.664 32C229.644 31.96 228.494 31.94 227.214 31.94C225.934 31.92 224.794 31.91 223.794 31.91C223.294 31.91 222.654 31.91 221.874 31.91C221.094 31.91 220.254 31.92 219.354 31.94C218.454 31.94 217.544 31.95 216.624 31.97C215.704 31.97 214.834 31.98 214.014 32V31.4C214.654 31.36 215.134 31.28 215.454 31.16C215.774 31.04 215.984 30.8 216.084 30.44C216.204 30.08 216.264 29.54 216.264 28.82V13.94C216.264 13.2 216.204 12.66 216.084 12.32C215.984 11.96 215.764 11.72 215.424 11.6C215.104 11.46 214.634 11.38 214.014 11.36V10.76C214.514 10.78 215.184 10.8 216.024 10.82C216.884 10.84 217.794 10.85 218.754 10.85C219.634 10.85 220.494 10.84 221.334 10.82C222.194 10.8 222.904 10.78 223.464 10.76ZM246.244 10.34C248.364 10.34 250.214 10.77 251.794 11.63C253.394 12.49 254.634 13.73 255.514 15.35C256.394 16.95 256.834 18.9 256.834 21.2C256.834 23.44 256.384 25.4 255.484 27.08C254.584 28.76 253.324 30.07 251.704 31.01C250.104 31.95 248.274 32.42 246.214 32.42C244.094 32.42 242.234 31.99 240.634 31.13C239.054 30.27 237.824 29.03 236.944 27.41C236.064 25.79 235.624 23.84 235.624 21.56C235.624 19.32 236.074 17.36 236.974 15.68C237.894 14 239.144 12.69 240.724 11.75C242.324 10.81 244.164 10.34 246.244 10.34ZM246.124 10.88C245.004 10.88 244.024 11.33 243.184 12.23C242.364 13.13 241.724 14.37 241.264 15.95C240.824 17.53 240.604 19.36 240.604 21.44C240.604 23.56 240.854 25.41 241.354 26.99C241.874 28.55 242.564 29.76 243.424 30.62C244.304 31.46 245.274 31.88 246.334 31.88C247.454 31.88 248.424 31.43 249.244 30.53C250.084 29.63 250.724 28.39 251.164 26.81C251.624 25.21 251.854 23.38 251.854 21.32C251.854 19.18 251.594 17.33 251.074 15.77C250.574 14.21 249.884 13.01 249.004 12.17C248.144 11.31 247.184 10.88 246.124 10.88ZM273.273 10.34C274.633 10.34 275.743 10.53 276.603 10.91C277.463 11.29 278.233 11.75 278.913 12.29C279.153 12.47 279.353 12.56 279.513 12.56C279.893 12.56 280.143 11.96 280.263 10.76H280.953C280.913 11.54 280.883 12.49 280.863 13.61C280.843 14.71 280.833 16.18 280.833 18.02H280.143C280.003 16.82 279.783 15.78 279.483 14.9C279.203 14 278.673 13.23 277.893 12.59C277.413 12.13 276.813 11.77 276.093 11.51C275.393 11.25 274.683 11.12 273.963 11.12C272.863 11.12 271.923 11.41 271.143 11.99C270.363 12.55 269.723 13.32 269.223 14.3C268.723 15.28 268.353 16.39 268.113 17.63C267.873 18.85 267.753 20.12 267.753 21.44C267.753 25.04 268.243 27.67 269.223 29.33C270.223 30.99 271.653 31.82 273.513 31.82C273.993 31.82 274.413 31.76 274.773 31.64C275.133 31.52 275.423 31.38 275.643 31.22C275.923 31.02 276.113 30.81 276.213 30.59C276.313 30.35 276.363 30.04 276.363 29.66V26.72C276.363 25.8 276.283 25.12 276.123 24.68C275.983 24.22 275.693 23.91 275.253 23.75C274.813 23.59 274.173 23.5 273.333 23.48V22.88C273.753 22.9 274.253 22.92 274.833 22.94C275.433 22.94 276.053 22.95 276.693 22.97C277.333 22.97 277.923 22.97 278.463 22.97C279.303 22.97 280.073 22.96 280.773 22.94C281.473 22.92 282.043 22.9 282.483 22.88V23.48C282.103 23.5 281.813 23.57 281.613 23.69C281.433 23.81 281.303 24.05 281.223 24.41C281.163 24.77 281.133 25.32 281.133 26.06V32H280.533C280.513 31.66 280.433 31.29 280.293 30.89C280.173 30.49 279.963 30.29 279.663 30.29C279.523 30.29 279.333 30.33 279.093 30.41C278.873 30.47 278.523 30.64 278.043 30.92C277.303 31.34 276.523 31.7 275.703 32C274.883 32.28 274.023 32.42 273.123 32.42C270.803 32.42 268.843 31.99 267.243 31.13C265.643 30.27 264.433 29.04 263.613 27.44C262.813 25.82 262.413 23.88 262.413 21.62C262.413 19.34 262.873 17.36 263.793 15.68C264.733 14 266.013 12.69 267.633 11.75C269.273 10.81 271.153 10.34 273.273 10.34ZM309.926 32V31.4C310.566 31.36 311.046 31.28 311.366 31.16C311.686 31.04 311.896 30.8 311.996 30.44C312.116 30.08 312.176 29.54 312.176 28.82V13.94C312.176 13.2 312.116 12.66 311.996 12.32C311.896 11.96 311.676 11.72 311.336 11.6C311.016 11.46 310.546 11.38 309.926 11.36V10.76C310.466 10.78 311.166 10.8 312.026 10.82C312.906 10.84 313.776 10.85 314.636 10.85C315.556 10.85 316.416 10.84 317.216 10.82C318.036 10.8 318.696 10.78 319.196 10.76V11.36C318.556 11.38 318.066 11.46 317.726 11.6C317.406 11.72 317.196 11.96 317.096 12.32C316.996 12.66 316.946 13.2 316.946 13.94V28.82C316.946 29.54 316.996 30.08 317.096 30.44C317.216 30.8 317.436 31.04 317.756 31.16C318.076 31.28 318.556 31.36 319.196 31.4V32C318.696 31.96 318.036 31.94 317.216 31.94C316.416 31.92 315.556 31.91 314.636 31.91C313.776 31.91 312.906 31.92 312.026 31.94C311.166 31.94 310.466 31.96 309.926 32ZM297.206 32V31.4C297.846 31.36 298.326 31.28 298.646 31.16C298.966 31.04 299.176 30.8 299.276 30.44C299.396 30.08 299.456 29.54 299.456 28.82V13.94C299.456 13.2 299.396 12.66 299.276 12.32C299.176 11.96 298.956 11.72 298.616 11.6C298.296 11.46 297.826 11.38 297.206 11.36V10.76C297.726 10.78 298.396 10.8 299.216 10.82C300.056 10.84 300.966 10.85 301.946 10.85C302.786 10.85 303.616 10.84 304.436 10.82C305.256 10.8 305.936 10.78 306.476 10.76V11.36C305.836 11.38 305.346 11.46 305.006 11.6C304.686 11.72 304.476 11.96 304.376 12.32C304.276 12.66 304.226 13.2 304.226 13.94V28.82C304.226 29.54 304.276 30.08 304.376 30.44C304.496 30.8 304.716 31.04 305.036 31.16C305.356 31.28 305.836 31.36 306.476 31.4V32C305.936 31.96 305.256 31.94 304.436 31.94C303.616 31.92 302.786 31.91 301.946 31.91C300.966 31.91 300.056 31.92 299.216 31.94C298.396 31.94 297.726 31.96 297.206 32ZM302.276 21.62V21.02H314.126V21.62H302.276ZM334.855 10.34C336.975 10.34 338.825 10.77 340.405 11.63C342.005 12.49 343.245 13.73 344.125 15.35C345.005 16.95 345.445 18.9 345.445 21.2C345.445 23.44 344.995 25.4 344.095 27.08C343.195 28.76 341.935 30.07 340.315 31.01C338.715 31.95 336.885 32.42 334.825 32.42C332.705 32.42 330.845 31.99 329.245 31.13C327.665 30.27 326.435 29.03 325.555 27.41C324.675 25.79 324.235 23.84 324.235 21.56C324.235 19.32 324.685 17.36 325.585 15.68C326.505 14 327.755 12.69 329.335 11.75C330.935 10.81 332.775 10.34 334.855 10.34ZM334.735 10.88C333.615 10.88 332.635 11.33 331.795 12.23C330.975 13.13 330.335 14.37 329.875 15.95C329.435 17.53 329.215 19.36 329.215 21.44C329.215 23.56 329.465 25.41 329.965 26.99C330.485 28.55 331.175 29.76 332.035 30.62C332.915 31.46 333.885 31.88 334.945 31.88C336.065 31.88 337.035 31.43 337.855 30.53C338.695 29.63 339.335 28.39 339.775 26.81C340.235 25.21 340.465 23.38 340.465 21.32C340.465 19.18 340.205 17.33 339.685 15.77C339.185 14.21 338.495 13.01 337.615 12.17C336.755 11.31 335.795 10.88 334.735 10.88ZM369.718 10.76V11.36C369.078 11.44 368.588 11.61 368.248 11.87C367.928 12.11 367.718 12.5 367.618 13.04C367.518 13.58 367.468 14.34 367.468 15.32V23.27C367.468 24.57 367.378 25.76 367.198 26.84C367.018 27.92 366.698 28.85 366.238 29.63C365.718 30.49 364.958 31.17 363.958 31.67C362.958 32.17 361.688 32.42 360.148 32.42C359.228 32.42 358.288 32.31 357.328 32.09C356.368 31.89 355.508 31.5 354.748 30.92C354.108 30.38 353.618 29.77 353.278 29.09C352.938 28.41 352.708 27.61 352.588 26.69C352.468 25.75 352.408 24.64 352.408 23.36V13.94C352.408 13.2 352.348 12.66 352.228 12.32C352.128 11.96 351.918 11.72 351.598 11.6C351.278 11.46 350.798 11.38 350.158 11.36V10.76C350.658 10.78 351.328 10.8 352.168 10.82C353.028 10.84 353.918 10.85 354.838 10.85C355.758 10.85 356.638 10.84 357.478 10.82C358.338 10.8 359.048 10.78 359.608 10.76V11.36C358.928 11.38 358.408 11.46 358.048 11.6C357.708 11.72 357.478 11.96 357.358 12.32C357.238 12.66 357.178 13.2 357.178 13.94V25.25C357.178 26.25 357.238 27.14 357.358 27.92C357.498 28.68 357.718 29.32 358.018 29.84C358.338 30.34 358.768 30.72 359.308 30.98C359.848 31.24 360.518 31.37 361.318 31.37C362.718 31.37 363.808 31.04 364.588 30.38C365.388 29.72 365.948 28.81 366.268 27.65C366.608 26.47 366.778 25.12 366.778 23.6V15.68C366.778 14.58 366.708 13.74 366.568 13.16C366.428 12.56 366.148 12.13 365.728 11.87C365.328 11.61 364.708 11.44 363.868 11.36V10.76C364.248 10.78 364.748 10.8 365.368 10.82C365.988 10.84 366.568 10.85 367.108 10.85C367.588 10.85 368.058 10.84 368.518 10.82C368.998 10.8 369.398 10.78 369.718 10.76ZM374.291 10.76C374.791 10.78 375.461 10.8 376.301 10.82C377.161 10.84 378.011 10.85 378.851 10.85C379.811 10.85 380.741 10.84 381.641 10.82C382.541 10.8 383.181 10.79 383.561 10.79C385.421 10.79 386.961 11 388.181 11.42C389.421 11.82 390.341 12.41 390.941 13.19C391.561 13.97 391.871 14.91 391.871 16.01C391.871 16.69 391.731 17.38 391.451 18.08C391.171 18.76 390.691 19.4 390.011 20C389.351 20.58 388.441 21.05 387.281 21.41C386.121 21.75 384.661 21.92 382.901 21.92H380.021V21.32H382.601C383.781 21.32 384.671 21.1 385.271 20.66C385.891 20.2 386.311 19.6 386.531 18.86C386.771 18.1 386.891 17.26 386.891 16.34C386.891 14.76 386.611 13.54 386.051 12.68C385.491 11.8 384.531 11.36 383.171 11.36C382.391 11.36 381.881 11.53 381.641 11.87C381.421 12.21 381.311 12.9 381.311 13.94V28.82C381.311 29.54 381.361 30.08 381.461 30.44C381.581 30.8 381.801 31.04 382.121 31.16C382.441 31.28 382.921 31.36 383.561 31.4V32C383.021 31.96 382.341 31.94 381.521 31.94C380.701 31.92 379.871 31.91 379.031 31.91C378.071 31.91 377.161 31.92 376.301 31.94C375.461 31.94 374.791 31.96 374.291 32V31.4C374.931 31.36 375.411 31.28 375.731 31.16C376.051 31.04 376.261 30.8 376.361 30.44C376.481 30.08 376.541 29.54 376.541 28.82V13.94C376.541 13.2 376.481 12.66 376.361 12.32C376.261 11.96 376.041 11.72 375.701 11.6C375.381 11.46 374.911 11.38 374.291 11.36V10.76ZM379.961 21.41C380.821 21.43 381.561 21.47 382.181 21.53C382.821 21.59 383.381 21.65 383.861 21.71C384.341 21.75 384.771 21.78 385.151 21.8C386.971 21.96 388.311 22.35 389.171 22.97C390.051 23.59 390.621 24.52 390.881 25.76L391.571 28.85C391.751 29.65 391.941 30.21 392.141 30.53C392.341 30.85 392.631 31.01 393.011 31.01C393.271 30.99 393.481 30.93 393.641 30.83C393.821 30.71 394.011 30.54 394.211 30.32L394.631 30.68C394.091 31.3 393.511 31.74 392.891 32C392.271 32.28 391.521 32.42 390.641 32.42C389.561 32.42 388.671 32.19 387.971 31.73C387.271 31.27 386.811 30.42 386.591 29.18L386.051 26.18C385.911 25.34 385.741 24.61 385.541 23.99C385.341 23.35 385.061 22.85 384.701 22.49C384.361 22.11 383.881 21.92 383.261 21.92H380.021L379.961 21.41Z" fill="#3B2F2F"/>
<path d="M0 46.5L398.5 46.5" stroke="black"/>
<path d="M0 24H47V30C47 32.2091 45.2091 34 43 34H4C1.79086 34 0 32.2091 0 30V24Z" fill="#3B2F2F"/>
<rect x="0.5" y="10.5" width="46" height="23" rx="3.5" stroke="#3B2F2F"/>
<path d="M44 10.5C44 9.38376 43.7801 8.27846 43.353 7.24719C42.9258 6.21592 42.2997 5.27889 41.5104 4.48959C40.7211 3.70029 39.7841 3.07419 38.7528 2.64702C37.7215 2.21986 36.6162 2 35.5 2C34.3838 2 33.2785 2.21986 32.2472 2.64702C31.2159 3.07419 30.2789 3.70029 29.4896 4.48959C28.7003 5.27889 28.0742 6.21592 27.647 7.24719C27.2199 8.27846 27 9.38377 27 10.5L35.5 7.24719L44 10.5Z" fill="#3B2F2F"/>
<path d="M20.617 14.8203C19.748 15.322 18.9864 15.9899 18.3756 16.7859C17.7648 17.582 17.3167 18.4905 17.057 19.4597C16.7973 20.4289 16.7311 21.4397 16.8621 22.4345C16.993 23.4293 17.3186 24.3886 17.8203 25.2575C18.322 26.1265 18.9899 26.8881 19.786 27.4989C20.582 28.1097 21.4906 28.5578 22.4597 28.8175C23.4289 29.0772 24.4398 29.1434 25.4346 29.0125C26.4294 28.8815 27.3886 28.5559 28.2576 28.0542L24.4373 21.4372L20.617 14.8203Z" fill="#3B2F2F"/>
<mask id="path-7-inside-1_176_5363" fill="white">
<path d="M28.2444 28.0556C29.1141 27.5552 29.8767 26.8883 30.4886 26.0932C31.1006 25.298 31.5499 24.3901 31.811 23.4213C32.0721 22.4525 32.1398 21.4417 32.0102 20.4468C31.8807 19.4518 31.5564 18.4921 31.056 17.6224C30.5555 16.7527 29.8887 15.9901 29.0935 15.3782C28.2984 14.7662 27.3904 14.3169 26.4216 14.0558C25.4528 13.7947 24.4421 13.727 23.4471 13.8566C22.4521 13.9861 21.4924 14.3104 20.6227 14.8108L22.6816 18.3887C23.0814 18.1586 23.5226 18.0095 23.98 17.95C24.4375 17.8904 24.9022 17.9215 25.3476 18.0416C25.793 18.1616 26.2104 18.3682 26.5759 18.6495C26.9415 18.9308 27.2481 19.2814 27.4781 19.6812C27.7082 20.0811 27.8573 20.5223 27.9168 20.9797C27.9764 21.4371 27.9453 21.9018 27.8252 22.3472C27.7052 22.7926 27.4986 23.21 27.2173 23.5756C26.936 23.9412 26.5854 24.2477 26.1856 24.4778L28.2444 28.0556Z"/>
</mask>
<path d="M28.2444 28.0556C29.1141 27.5552 29.8767 26.8883 30.4886 26.0932C31.1006 25.298 31.5499 24.3901 31.811 23.4213C32.0721 22.4525 32.1398 21.4417 32.0102 20.4468C31.8807 19.4518 31.5564 18.4921 31.056 17.6224C30.5555 16.7527 29.8887 15.9901 29.0935 15.3782C28.2984 14.7662 27.3904 14.3169 26.4216 14.0558C25.4528 13.7947 24.4421 13.727 23.4471 13.8566C22.4521 13.9861 21.4924 14.3104 20.6227 14.8108L22.6816 18.3887C23.0814 18.1586 23.5226 18.0095 23.98 17.95C24.4375 17.8904 24.9022 17.9215 25.3476 18.0416C25.793 18.1616 26.2104 18.3682 26.5759 18.6495C26.9415 18.9308 27.2481 19.2814 27.4781 19.6812C27.7082 20.0811 27.8573 20.5223 27.9168 20.9797C27.9764 21.4371 27.9453 21.9018 27.8252 22.3472C27.7052 22.7926 27.4986 23.21 27.2173 23.5756C26.936 23.9412 26.5854 24.2477 26.1856 24.4778L28.2444 28.0556Z" stroke="#3B2F2F" stroke-width="2" mask="url(#path-7-inside-1_176_5363)"/>
</svg>
